<?xml version="1.0" encoding="UTF-8"?>
<svg id="Layer_2" data-name="Layer 2" xmlns="http://www.w3.org/2000/svg" xmlns:xlink="http://www.w3.org/1999/xlink" viewBox="0 0 199 199">
  <defs>
    <style>
      .cls-1 {
        stroke: #000;
        stroke-miterlimit: 10;
        stroke-width: .25px;
      }

      .cls-2 {
        fill: none;
        stroke-width: 0px;
      }

      .cls-3 {
        clip-path: url(#clippath);
      }
    </style>
    <clipPath id="clippath">
      <circle class="cls-2" cx="99.5" cy="99.5" r="99.5"/>
    </clipPath>
  </defs>
  <g id="Layer_1-2" data-name="Layer 1">
    <g class="cls-3">
      <path class="cls-1" d="m12.11,19.95c-1.92,3.16-4.36,6-7.21,8.37,2.85-2.28,5.7-4.56,8.56-6.84,6.82,5.49,16.37,5.76,25.15,5.54,34.63-.89,69.32-5.53,103.79-2.05,7.92.8,15.84,2.03,23.8,1.84,5.48-.13,11.11-.9,16.33.77,8.82,2.82,14.7,12.07,23.78,13.87-1.36,1.44-2.72,2.88-4.08,4.32-18.07-9.54-38.52-17.64-58.56-13.53-3.94.81-7.84,2.09-11.86,2.15-4.02.07-7.95-1.08-11.95-1.49-9.61-.98-19.15,2.32-28.81,2.41-5.29.05-10.53-.86-15.79-1.4-16.68-1.72-33.73.31-49.53,5.88.12-3.94-3.97-6.8-7.87-7.53s-7.98-.13-11.83-1.08c-1.69-.42-3.49-2.65-1.97-3.49"/>
      <path class="cls-1" d="m52.97,42.25c2.04-.07,4.08-.14,6.12-.21,14.7-.49,29.64-.96,43.88,2.7,2.32.6,4.66,1.32,6.64,2.67,1.28.87,2.38,1.98,3.72,2.75,1.9,1.1,4.14,1.44,6.33,1.69,9.61,1.09,19.32.74,28.99.4,22.15-.79,44.29-1.59,66.44-2.38-.34,2.39-.67,4.78-1.01,7.18-17.06-4.81-35.11.19-52.61,3.01-5.36.86-10.77,1.52-16.2,1.5-5.99-.02-11.94-.87-17.87-1.71-8.6-1.22-17.2-2.45-25.8-3.67-6.39-.91-12.79-1.82-19.06-3.33-3.85-.93-7.64-2.08-11.53-2.81-14.54-2.74-29.15.56-43.43,3.23-9.43,1.76-19.97,6.49-24.04-4.7-3.64-10.01.09-7.34,6.6-5.49,12.3,3.48,30.1-.38,42.84-.81Z"/>
      <path class="cls-1" d="m42.1,70.82c2.62.38,5.47.94,7.15,2.97,1.81,2.2,1.47,5.83-.71,7.66s-5.84,1.54-7.71-.61c18.51-7.23,40.27-5.69,57.57,4.08,1.87,1.06,3.75,2.23,5.87,2.58,2.71.46,5.44-.47,8.09-1.23,16.54-4.7,34.13-2.78,51.32-3.32,17.19-.54,35.76-4.41,46.9-17.45-6.19,1.58-12.37,3.16-18.56,4.73-16.14,4.12-33.14,8.24-49.26,4.03-3.38-.88-6.78-2.14-10.26-1.82-5.08.46-9.21,4.14-13.93,6.06-9.16,3.71-19.49.54-28.98-2.25-16.36-4.83-33.08-8.48-49.96-10.94-13.01-1.89-28.32-7.12-37.78,3.75,13.48-.55,26.89-.18,40.26,1.74Z"/>
      <path class="cls-1" d="m11.28,85.3c22.23.48,42.33,17.04,64.47,15.04,5.25-.48,10.75-1.97,15.63.03,1.59.65,3.03,1.65,4.69,2.12,2.42.67,4.98.12,7.44-.35,11.83-2.26,24.03-2.57,35.96-.91,8.08,1.13,16.06,3.15,24.22,3.42,18.22.61,35.46-7.46,51.87-15.35-1.82,3.67-2.92,7.68-3.23,11.76-13.52,1.16-26.85,4.34-39.44,9.38-4.22,1.69-8.41,3.6-12.9,4.35-6.04,1-12.21-.17-18.23-1.34-15.56-3.03-31.69-6.04-47.13-2.44-3.15.73-6.39,1.74-9.54,1.06-2.59-.56-4.8-2.19-7.22-3.26-8.91-3.94-19.27.06-28.97-.97-9.71-1.02-18.08-6.97-27.13-10.66-10.61-4.32-22.49-5.52-33.76-3.39,3.69-.69,7.76-5.4,11.51-6.78s7.71-1.79,11.76-1.7Z"/>
      <path class="cls-1" d="m45.3,128.84c1.1.8,2.26,1.63,3.6,1.89,1.43.27,2.9-.15,4.3-.55,23.21-6.56,47.81-8.19,71.69-4.73,4.95.72,9.92,1.65,14.92,1.35,4.9-.29,9.64-1.77,14.38-3.06,23.54-6.42,48.27-8.46,72.55-6-7.62,10.61-23.11,10.32-36.13,11.81-8.76,1-17.31,3.28-26,4.73-39.87,6.63-81.95-4.33-120.63,7.34-6.13-8.44-16.1-13.11-25.63-17.43-10.42-4.72-21.15-9.09-31.31-14.3,17.26-11.55,44.71,9.09,58.27,18.96Z"/>
      <path class="cls-1" d="m57.07,154.2c9.53,1.74,19.95,3,28.39-1.73,1.63-.91,3.18-2.05,5.01-2.42,1.74-.35,3.54.03,5.28.39,37.37,7.69,76.88,4.8,112.71-8.24-2.72,3.8-4.94,7.95-6.6,12.31-23.41,3.79-47.07,6.02-70.78,6.68-7.11.2-14.28.25-21.28-1.03-3.34-.61-6.66-1.53-10.06-1.62-4.26-.11-8.43,1.08-12.58,2.06-18.99,4.46-39.03,4.46-58.01-.02-8.95-2.11-26.6-8.45-26.41-19.85,18.1,2.74,36.08,10.15,54.32,13.48Z"/>
      <path class="cls-1" d="m38.75,181.4c3.16.17,29.93-1.08,32.99-.57,30.98,5.2,54.05-7.12,84.42-2.84,5.08-5.13,14.88-10.27,22.47-13.24-33.95,1.78-60.24,6.73-94.19,8.51-6.49.34-39.06-3.73-45.54-4.41-6.64-.69-12.8-3.03-19.36-3.13-.69,6.12,12.68,15.32,19.21,15.67Z"/>
    </g>
  </g>
</svg>